<?xml version="1.0" encoding="UTF-8"?>
<svg width="20px" height="20px" viewBox="0 0 20 20" version="1.1" xmlns="http://www.w3.org/2000/svg" xmlns:xlink="http://www.w3.org/1999/xlink">
    <path fill-rule="evenodd" d="M10,9.29364099 L19.1473492,0.14629174 C19.3424049,-0.04876391 19.6586526,-0.04876391 19.8537083,0.14629174 C20.0487639,0.3413474 20.0487639,0.6575951 19.8537083,0.85265076 L10.706359,10 L19.8537083,19.1473492 C20.0487639,19.3424049 20.0487639,19.6586526 19.8537083,19.8537083 C19.6586526,20.0487639 19.3424049,20.0487639 19.1473492,19.8537083 L10,10.706359 L0.85265076,19.8537083 C0.6575951,20.0487639 0.3413474,20.0487639 0.14629174,19.8537083 C-0.04876391,19.6586526 -0.04876391,19.3424049 0.14629174,19.1473492 L9.29364099,10 L0.14629174,0.85265076 C-0.04876391,0.6575951 -0.04876391,0.3413474 0.14629174,0.14629174 C0.3413474,-0.04876391 0.6575951,-0.04876391 0.85265076,0.14629174 L10,9.29364099 Z" fill-rule="nonzero"></path>
</svg>
