<?xml version="1.0" encoding="UTF-8"?>
<svg width="16px" height="16px" viewBox="0 0 16 16" version="1.1" xmlns="http://www.w3.org/2000/svg" xmlns:xlink="http://www.w3.org/1999/xlink">
    <path d="M5.1,12.3c0,0.4,0.4,0.7,0.8,0.7l3.6,0c0.4,0,0.7-0.3,0.8-0.7l0.7-8H4.3L5.1,12.3z M12,4.1l-0.7,8.3 c-0.1,0.9-0.9,1.6-1.8,1.6H5.9c-0.9,0-1.7-0.7-1.8-1.6L3.3,4.1H2.4C2.2,4.1,2,3.9,2,3.7c0-0.2,0.2-0.4,0.4-0.4h10.7 c0.2,0,0.4,0.2,0.4,0.4c0,0.2-0.2,0.4-0.4,0.4H12z M6.5,1h2C8.8,1,9,1.2,9,1.5S8.8,2,8.5,2h-2C6.2,2,6,1.8,6,1.5S6.2,1,6.5,1z"/>
</svg>
